<?xml version="1.0" encoding="utf-8"?>
<!-- Generator: Adobe Illustrator 28.1.0, SVG Export Plug-In . SVG Version: 6.00 Build 0)  -->
<svg version="1.1" id="Layer_1" xmlns="http://www.w3.org/2000/svg" xmlns:xlink="http://www.w3.org/1999/xlink" x="0px" y="0px"
	 viewBox="0 0 5400 5400" style="enable-background:new 0 0 5400 5400;" xml:space="preserve">
<style type="text/css">
	.st0{fill:#FFFFFF;}
	.st1{font-family:'InkFree';}
	.st2{font-size:1025.3975px;}
</style>
<g id="Background_00000183959430141434228220000002229601057564887705_">
</g>
<g id="Graphic_Elements_00000085209014071340785070000015844064239477673654_">
</g>
<g id="Text_00000029026072702373649650000016756001995091125427_">
</g>
<g id="Background_00000140730401286941316890000016760144086425253277_">
</g>
<g id="Graphic_Elements_00000089572807827983484400000006914493376568140676_">
</g>
<g id="Text_00000069375073248516508670000010647567061560854928_">
</g>
<g id="Background_00000097496413600631976040000009782830195494544805_">
</g>
<g id="Graphic_Elements_00000011712152977565128370000014012564308411085959_">
</g>
<g id="Text_00000146468123883646414730000016847806502742388399_">
</g>
<g id="Background">
</g>
<g id="Element_00000155114194288065105040000012488974652828847291_">
	<path class="st0" d="M600.7,1880.4c367-670.1,1169.9-1137.2,2099.6-1137.2s1732.3,466.6,2099.6,1137.2h38.5
		C4468.5,1193.4,3649.8,714,2700.3,714S932,1193.4,562.2,1880.4H600.7L600.7,1880.4z"/>
	<path class="st0" d="M4832.5,3457.5C4481.9,4161,3657.8,4656.3,2700.3,4656.3S919.1,4160.8,568,3458.5h-37.5
		C883.7,4178.9,1722.5,4686,2699.7,4686s1818.1-508.1,2169.7-1227.5H4832v-1H4832.5z"/>
</g>
<g id="Element_00000164514374362295256650000014142004152656446383_">
	<g>
		<ellipse class="st0" cx="5333.1" cy="2699" rx="46.5" ry="39.5"/>
	</g>
	<g>
		<ellipse class="st0" cx="5302.6" cy="2441.7" rx="46.5" ry="39.5"/>
	</g>
	<g>
		<ellipse class="st0" cx="5256.1" cy="2187.4" rx="46.5" ry="39.5"/>
	</g>
	<g>
		<ellipse class="st0" cx="5165.3" cy="1940.6" rx="46.5" ry="39.5"/>
	</g>
	<g>
		<ellipse class="st0" cx="5043.3" cy="1704.9" rx="46.5" ry="39.5"/>
	</g>
	<g>
		<ellipse class="st0" cx="4897.2" cy="1476.8" rx="46.5" ry="39.5"/>
	</g>
	<g>
		<ellipse class="st0" cx="4707.5" cy="1275.3" rx="46.5" ry="39.5"/>
	</g>
	<g>
		<ellipse class="st0" cx="4502" cy="1083.4" rx="46.5" ry="39.5"/>
	</g>
	<g>
		<ellipse class="st0" cx="4266.1" cy="919.4" rx="46.5" ry="39.5"/>
	</g>
	<g>
		<ellipse class="st0" cx="4010.7" cy="780" rx="46.5" ry="39.5"/>
	</g>
	<g>
		<ellipse class="st0" cx="3742.1" cy="655.8" rx="46.5" ry="39.5"/>
	</g>
	<g>
		<ellipse class="st0" cx="3450.3" cy="576.3" rx="46.5" ry="39.5"/>
	</g>
	<g>
		<ellipse class="st0" cx="3155.5" cy="512.9" rx="46.5" ry="39.5"/>
	</g>
	<g>
		<ellipse class="st0" cx="2851.9" cy="486.2" rx="46.5" ry="39.5"/>
	</g>
	<g>
		<ellipse class="st0" cx="2548.1" cy="486.2" rx="46.5" ry="39.5"/>
	</g>
	<g>
		<ellipse class="st0" cx="2243.5" cy="512.9" rx="46.5" ry="39.5"/>
	</g>
	<g>
		<ellipse class="st0" cx="1948.2" cy="576.3" rx="46.5" ry="39.5"/>
	</g>
	<g>
		<ellipse class="st0" cx="1657.9" cy="655.8" rx="46.5" ry="39.5"/>
	</g>
	<g>
		<ellipse class="st0" cx="1388.2" cy="780" rx="46.5" ry="39.5"/>
	</g>
	<g>
		<ellipse class="st0" cx="1132.4" cy="919.4" rx="46.5" ry="39.5"/>
	</g>
	<g>
		<ellipse class="st0" cx="896.5" cy="1084.4" rx="46.5" ry="39.5"/>
	</g>
	<g>
		<ellipse class="st0" cx="692" cy="1275.3" rx="46.5" ry="39.5"/>
	</g>
	<g>
		<ellipse class="st0" cx="501.8" cy="1477.8" rx="46.5" ry="39.5"/>
	</g>
	<g>
		<ellipse class="st0" cx="356.2" cy="1705.4" rx="46.5" ry="39.5"/>
	</g>
	<g>
		<ellipse class="st0" cx="234.2" cy="1941.1" rx="46.5" ry="39.5"/>
	</g>
	<g>
		<ellipse class="st0" cx="143.9" cy="2188.4" rx="46.5" ry="39.5"/>
	</g>
	<g>
		<ellipse class="st0" cx="97.4" cy="2442.7" rx="46.5" ry="39.5"/>
	</g>
	<g>
		<ellipse class="st0" cx="66.9" cy="2700" rx="46.5" ry="39.5"/>
	</g>
	<g>
		<ellipse class="st0" cx="97.4" cy="2957.3" rx="46.5" ry="39.5"/>
	</g>
	<g>
		<ellipse class="st0" cx="143.9" cy="3212.1" rx="46.5" ry="39.5"/>
	</g>
	<g>
		<ellipse class="st0" cx="234.2" cy="3459.9" rx="46.5" ry="39.5"/>
	</g>
	<g>
		<ellipse class="st0" cx="356.2" cy="3695.6" rx="46.5" ry="39.5"/>
	</g>
	<g>
		<ellipse class="st0" cx="502.8" cy="3922.2" rx="46.5" ry="39.5"/>
	</g>
	<g>
		<ellipse class="st0" cx="692" cy="4124.7" rx="46.5" ry="39.5"/>
	</g>
	<g>
		<ellipse class="st0" cx="897.5" cy="4315.6" rx="46.5" ry="39.5"/>
	</g>
	<g>
		<ellipse class="st0" cx="1133.4" cy="4480.6" rx="46.5" ry="39.5"/>
	</g>
	<g>
		<ellipse class="st0" cx="1389.3" cy="4620" rx="46.5" ry="39.5"/>
	</g>
	<g>
		<ellipse class="st0" cx="1657.9" cy="4744.2" rx="46.5" ry="39.5"/>
	</g>
	<g>
		<ellipse class="st0" cx="1948.2" cy="4823.7" rx="46.5" ry="39.5"/>
	</g>
	<g>
		<ellipse class="st0" cx="2243.5" cy="4887.6" rx="46.5" ry="39.5"/>
	</g>
	<g>
		<ellipse class="st0" cx="2548.1" cy="4913.8" rx="46.5" ry="39.5"/>
	</g>
	<g>
		<ellipse class="st0" cx="2851.9" cy="4913.8" rx="46.5" ry="39.5"/>
	</g>
	<g>
		<ellipse class="st0" cx="3156.5" cy="4887.6" rx="46.5" ry="39.5"/>
	</g>
	<g>
		<ellipse class="st0" cx="3451.8" cy="4823.7" rx="46.5" ry="39.5"/>
	</g>
	<g>
		<ellipse class="st0" cx="3742.1" cy="4744.2" rx="46.5" ry="39.5"/>
	</g>
	<g>
		<ellipse class="st0" cx="4011.8" cy="4620" rx="46.5" ry="39.5"/>
	</g>
	<g>
		<ellipse class="st0" cx="4267.6" cy="4480.6" rx="46.5" ry="39.5"/>
	</g>
	<g>
		<ellipse class="st0" cx="4503.5" cy="4315.6" rx="46.5" ry="39.5"/>
	</g>
	<g>
		<ellipse class="st0" cx="4707.5" cy="4124.7" rx="46.5" ry="39.5"/>
	</g>
	<g>
		<ellipse class="st0" cx="4897.2" cy="3922.2" rx="46.5" ry="39.5"/>
	</g>
	<g>
		<ellipse class="st0" cx="5043.3" cy="3695.6" rx="46.5" ry="39.5"/>
	</g>
	<g>
		<ellipse class="st0" cx="5165.3" cy="3459.9" rx="46.5" ry="39.5"/>
	</g>
	<g>
		<ellipse class="st0" cx="5256.1" cy="3212.1" rx="46.5" ry="39.5"/>
	</g>
	<g>
		<ellipse class="st0" cx="5302.6" cy="2957.3" rx="46.5" ry="39.5"/>
	</g>
	<g>
		<ellipse class="st0" cx="5333.1" cy="2700" rx="46.5" ry="39.5"/>
	</g>
</g>
<text transform="matrix(1 0 0 1 301.6302 2961.7314)" class="st0 st1 st2">BookHaven</text>
</svg>
